<svg width="108" height="43" viewBox="0 0 108 43" fill="none" xmlns="http://www.w3.org/2000/svg">
<g filter="url(#filter0_i_1115_282)">
<rect width="108" height="40" rx="20" fill="#64544B"/>
</g>
<g filter="url(#filter1_d_1115_282)">
<rect x="6" y="5" width="95" height="30" rx="15" fill="url(#paint0_linear_1115_282)"/>
</g>
<g filter="url(#filter2_i_1115_282)">
<path d="M38 20C38 14.4772 42.4772 10 48 10H85C90.5228 10 95 14.4772 95 20V20C95 25.5228 90.5228 30 85 30H48C42.4772 30 38 25.5228 38 20V20Z" fill="#48360F"/>
</g>
<path d="M44.296 16.424C45.04 16.316 45.712 16.094 46.312 15.758C46.924 15.422 47.41 15.026 47.77 14.57H50.524L48.076 26H44.188L45.97 17.63H44.026L44.296 16.424ZM57.4263 14.39C58.3623 14.39 59.1303 14.522 59.7303 14.786C60.3303 15.05 60.8043 15.458 61.1523 16.01C61.3923 16.382 61.5783 16.808 61.7103 17.288C61.8423 17.756 61.9083 18.29 61.9083 18.89C61.9083 19.394 61.8603 19.91 61.7643 20.438C61.6683 20.966 61.5303 21.476 61.3503 21.968C61.1703 22.46 60.9543 22.928 60.7023 23.372C60.4623 23.804 60.1923 24.182 59.8923 24.506C59.3523 25.106 58.7343 25.532 58.0383 25.784C57.3423 26.024 56.4963 26.144 55.5003 26.144C54.5403 26.144 53.7603 26.036 53.1603 25.82C52.5723 25.604 52.1043 25.256 51.7563 24.776C51.4683 24.428 51.2523 23.99 51.1083 23.462C50.9763 22.922 50.9103 22.298 50.9103 21.59C50.9103 20.954 50.9703 20.336 51.0903 19.736C51.2103 19.124 51.3843 18.554 51.6123 18.026C51.8523 17.498 52.1403 17.018 52.4763 16.586C52.8123 16.154 53.1963 15.788 53.6283 15.488C54.1323 15.128 54.6903 14.858 55.3023 14.678C55.9263 14.486 56.6343 14.39 57.4263 14.39ZM55.4643 24.884C55.7043 24.884 55.9323 24.758 56.1483 24.506C56.3763 24.254 56.5863 23.924 56.7783 23.516C56.9703 23.096 57.1383 22.622 57.2823 22.094C57.4383 21.554 57.5703 21.002 57.6783 20.438C57.7863 19.862 57.8703 19.304 57.9303 18.764C57.9903 18.212 58.0203 17.708 58.0203 17.252C58.0203 16.64 57.9663 16.22 57.8583 15.992C57.7503 15.752 57.5943 15.632 57.3903 15.632C57.1383 15.632 56.8983 15.758 56.6703 16.01C56.4423 16.25 56.2323 16.574 56.0403 16.982C55.8483 17.378 55.6683 17.84 55.5003 18.368C55.3443 18.896 55.2063 19.436 55.0863 19.988C54.9783 20.54 54.8943 21.086 54.8343 21.626C54.7743 22.166 54.7443 22.658 54.7443 23.102C54.7443 23.774 54.8103 24.242 54.9423 24.506C55.0743 24.758 55.2483 24.884 55.4643 24.884ZM69.4497 14.39C70.3857 14.39 71.1537 14.522 71.7537 14.786C72.3537 15.05 72.8277 15.458 73.1757 16.01C73.4157 16.382 73.6017 16.808 73.7337 17.288C73.8657 17.756 73.9317 18.29 73.9317 18.89C73.9317 19.394 73.8837 19.91 73.7877 20.438C73.6917 20.966 73.5537 21.476 73.3737 21.968C73.1937 22.46 72.9777 22.928 72.7257 23.372C72.4857 23.804 72.2157 24.182 71.9157 24.506C71.3757 25.106 70.7577 25.532 70.0617 25.784C69.3657 26.024 68.5197 26.144 67.5237 26.144C66.5637 26.144 65.7837 26.036 65.1837 25.82C64.5957 25.604 64.1277 25.256 63.7797 24.776C63.4917 24.428 63.2757 23.99 63.1317 23.462C62.9997 22.922 62.9337 22.298 62.9337 21.59C62.9337 20.954 62.9937 20.336 63.1137 19.736C63.2337 19.124 63.4077 18.554 63.6357 18.026C63.8757 17.498 64.1637 17.018 64.4997 16.586C64.8357 16.154 65.2197 15.788 65.6517 15.488C66.1557 15.128 66.7137 14.858 67.3257 14.678C67.9497 14.486 68.6577 14.39 69.4497 14.39ZM67.4877 24.884C67.7277 24.884 67.9557 24.758 68.1717 24.506C68.3997 24.254 68.6097 23.924 68.8017 23.516C68.9937 23.096 69.1617 22.622 69.3057 22.094C69.4617 21.554 69.5937 21.002 69.7017 20.438C69.8097 19.862 69.8937 19.304 69.9537 18.764C70.0137 18.212 70.0437 17.708 70.0437 17.252C70.0437 16.64 69.9897 16.22 69.8817 15.992C69.7737 15.752 69.6177 15.632 69.4137 15.632C69.1617 15.632 68.9217 15.758 68.6937 16.01C68.4657 16.25 68.2557 16.574 68.0637 16.982C67.8717 17.378 67.6917 17.84 67.5237 18.368C67.3677 18.896 67.2297 19.436 67.1097 19.988C67.0017 20.54 66.9177 21.086 66.8577 21.626C66.7977 22.166 66.7677 22.658 66.7677 23.102C66.7677 23.774 66.8337 24.242 66.9657 24.506C67.0977 24.758 67.2717 24.884 67.4877 24.884ZM81.4732 14.39C82.4092 14.39 83.1772 14.522 83.7772 14.786C84.3772 15.05 84.8512 15.458 85.1992 16.01C85.4392 16.382 85.6252 16.808 85.7572 17.288C85.8892 17.756 85.9552 18.29 85.9552 18.89C85.9552 19.394 85.9072 19.91 85.8112 20.438C85.7152 20.966 85.5772 21.476 85.3972 21.968C85.2172 22.46 85.0012 22.928 84.7492 23.372C84.5092 23.804 84.2392 24.182 83.9392 24.506C83.3992 25.106 82.7812 25.532 82.0852 25.784C81.3892 26.024 80.5432 26.144 79.5472 26.144C78.5872 26.144 77.8072 26.036 77.2072 25.82C76.6192 25.604 76.1512 25.256 75.8032 24.776C75.5152 24.428 75.2992 23.99 75.1552 23.462C75.0232 22.922 74.9572 22.298 74.9572 21.59C74.9572 20.954 75.0172 20.336 75.1372 19.736C75.2572 19.124 75.4312 18.554 75.6592 18.026C75.8992 17.498 76.1872 17.018 76.5232 16.586C76.8592 16.154 77.2432 15.788 77.6752 15.488C78.1792 15.128 78.7372 14.858 79.3492 14.678C79.9732 14.486 80.6812 14.39 81.4732 14.39ZM79.5112 24.884C79.7512 24.884 79.9792 24.758 80.1952 24.506C80.4232 24.254 80.6332 23.924 80.8252 23.516C81.0172 23.096 81.1852 22.622 81.3292 22.094C81.4852 21.554 81.6172 21.002 81.7252 20.438C81.8332 19.862 81.9172 19.304 81.9772 18.764C82.0372 18.212 82.0672 17.708 82.0672 17.252C82.0672 16.64 82.0132 16.22 81.9052 15.992C81.7972 15.752 81.6412 15.632 81.4372 15.632C81.1852 15.632 80.9452 15.758 80.7172 16.01C80.4892 16.25 80.2792 16.574 80.0872 16.982C79.8952 17.378 79.7152 17.84 79.5472 18.368C79.3912 18.896 79.2532 19.436 79.1332 19.988C79.0252 20.54 78.9412 21.086 78.8812 21.626C78.8212 22.166 78.7912 22.658 78.7912 23.102C78.7912 23.774 78.8572 24.242 78.9892 24.506C79.1212 24.758 79.2952 24.884 79.5112 24.884Z" fill="white"/>
<path d="M30.2162 25.747C34.3865 21.42 34.8921 15.8031 32.7942 13.3661C32.4397 12.9544 30.5167 10.6884 30.303 10.4679C27.0595 7.12303 22.4842 10.2532 18.5678 14.3167C14.3976 18.6436 12.4217 23.2502 15.4986 26.2235C15.9005 26.6118 18.1826 28.6536 18.7173 28.9635C22.276 31.0264 26.5907 29.5088 30.2162 25.747Z" fill="url(#paint1_linear_1115_282)"/>
<path d="M30.4289 15.6998C30.4289 15.6998 33.5203 17.5665 33.6129 16.5734C33.8164 14.3907 30.2974 10.7072 30.2974 10.7072C30.2974 10.7072 31.1349 12.7693 30.4289 15.6998Z" fill="url(#paint2_linear_1115_282)"/>
<path d="M30.2162 25.747C31.2795 24.6439 32.1744 23.2941 32.7995 22.0593C29.1729 18.3723 26.1999 24.4707 24.2487 23.6988C20.342 22.1532 22.8286 9.72749 18.6584 14.0544C15.0668 17.7809 12.9407 22.2726 15.0101 25.5871C15.3436 26.1212 17.8056 28.3659 18.421 28.775C21.9626 31.1294 26.046 30.074 30.2162 25.747Z" fill="url(#paint3_linear_1115_282)"/>
<path d="M26.4825 21.7347C30.4812 17.3929 31.8705 12.1699 29.5857 10.0689C27.3008 7.96791 22.6939 9.18274 18.2084 14.1262C14.2405 18.4994 12.8205 23.691 15.1052 25.792C17.3901 27.893 22.4839 26.0766 26.4825 21.7347Z" fill="url(#paint4_linear_1115_282)"/>
<path d="M20.1677 15.966C22.6772 13.2349 25.7062 11.9072 27.0243 12.933C26.9483 12.8264 26.8628 12.7273 26.7663 12.6376C25.314 11.2899 22.0633 12.4651 19.5056 15.2625C16.9478 18.06 16.0517 21.4205 17.504 22.7682C17.5352 22.7972 17.5683 22.8234 17.6012 22.85C16.7011 21.5294 17.7742 18.5708 20.1677 15.966Z" fill="#B43303"/>
<path d="M24.7649 20.1436C27.3291 17.3531 28.3787 14.1556 27.1092 13.002C25.8397 11.8484 22.7319 13.1754 20.1677 15.9661C17.6035 18.7567 16.5539 21.9542 17.8233 23.1077C19.0928 24.2613 22.2006 22.9342 24.7649 20.1436Z" fill="url(#paint5_linear_1115_282)"/>
<path d="M20.88 16.7228C23.3511 14.0465 26.1892 12.5812 27.3746 13.3286C27.3011 13.2072 27.2137 13.0971 27.1092 13.002C25.8397 11.8484 22.7319 13.1754 20.1677 15.9661C17.6035 18.7567 16.5539 21.9542 17.8233 23.1077C17.8724 23.1524 17.9252 23.1919 17.9797 23.2293C17.3189 22.0451 18.5213 19.2773 20.88 16.7228Z" fill="url(#paint6_linear_1115_282)"/>
<path d="M16.4058 20.9456C16.5213 21.6592 16.7784 22.3704 17.3898 23.0041C18.456 24.1095 19.4416 23.8402 21.0057 23.7366C21.5112 23.7031 25.2138 23.2954 22.4111 24.8613C19.4332 26.525 16.5803 26.8888 15.0462 25.2983C13.9381 24.1496 13.8088 22.2965 14.5646 20.3163C15.4462 18.0068 16.286 20.2063 16.4058 20.9456Z" fill="url(#paint7_linear_1115_282)"/>
<path d="M29.2932 9.54971C30.0973 10.061 30.9394 11.4659 30.8446 13.253C30.645 17.0173 28.5222 19.8717 26.517 22.0491C25.2656 23.4079 23.0375 25.2196 20.3735 26.0974C22.1445 25.4179 24.5328 23.6106 25.9217 22.2135C27.6837 20.4409 30.0206 17.3677 30.5576 14.3473C30.5531 14.3609 30.5494 14.3744 30.5448 14.388C30.6474 13.8501 30.6857 13.3294 30.6669 12.8392C30.6647 12.7883 30.6629 12.7374 30.6594 12.6868C30.6563 12.639 30.6523 12.5919 30.6481 12.5448C30.604 12.075 30.5008 11.6173 30.3295 11.1779C30.1483 10.7357 29.8995 10.3575 29.5858 10.069C28.1072 8.70938 25.4522 8.99038 22.6788 10.5347C26.2808 8.48695 28.1994 8.8541 29.2932 9.54971Z" fill="url(#paint8_linear_1115_282)"/>
<path d="M25.3009 25.5184C27.3378 25.3835 28.639 26.54 27.5965 27.6732C27.4726 27.8079 25.057 29.4157 22.6769 29.6704C19.6289 29.9965 16.8189 27.1961 16.8944 27.1312C17.0438 27.0026 18.6593 27.1707 20.1119 26.8671C23.1456 26.2331 24.0053 25.6042 25.3009 25.5184Z" fill="#DD3D84" fill-opacity="0.36"/>
<path d="M16.5544 18.1416C16.2945 18.684 16.4544 19.9144 16.6849 19.918C16.9155 19.9215 16.9584 19.3097 17.3518 18.4861C17.7514 17.6493 18.633 16.3796 18.4964 16.2325C18.3436 16.068 17.0914 17.0208 16.5544 18.1416Z" fill="white" fill-opacity="0.5"/>
<path d="M30.2801 15.4359C30.621 14.9126 30.8504 13.1271 30.6978 12.1265C30.469 10.6254 28.7955 8.83925 28.1649 9.60077C26.871 11.1632 29.538 16.575 30.2801 15.4359Z" fill="white" fill-opacity="0.47"/>
<path d="M26.3008 17.4434C27.6187 15.9887 27.9251 14.0835 26.9852 13.1881C26.0453 12.2926 24.215 12.746 22.8971 14.2007C21.5792 15.6554 21.2728 17.5605 22.2127 18.456C23.1526 19.3515 24.983 18.8981 26.3008 17.4434Z" fill="url(#paint9_linear_1115_282)"/>
<defs>
<filter id="filter0_i_1115_282" x="0" y="0" width="108" height="43.3" filterUnits="userSpaceOnUse" color-interpolation-filters="sRGB">
<feFlood flood-opacity="0" result="BackgroundImageFix"/>
<feBlend mode="normal" in="SourceGraphic" in2="BackgroundImageFix" result="shape"/>
<feColorMatrix in="SourceAlpha" type="matrix" values="0 0 0 0 0 0 0 0 0 0 0 0 0 0 0 0 0 0 127 0" result="hardAlpha"/>
<feOffset dy="4"/>
<feGaussianBlur stdDeviation="1.65"/>
<feComposite in2="hardAlpha" operator="arithmetic" k2="-1" k3="1"/>
<feColorMatrix type="matrix" values="0 0 0 0 0 0 0 0 0 0 0 0 0 0 0 0 0 0 0.45 0"/>
<feBlend mode="normal" in2="shape" result="effect1_innerShadow_1115_282"/>
</filter>
<filter id="filter1_d_1115_282" x="2" y="5" width="103" height="38" filterUnits="userSpaceOnUse" color-interpolation-filters="sRGB">
<feFlood flood-opacity="0" result="BackgroundImageFix"/>
<feColorMatrix in="SourceAlpha" type="matrix" values="0 0 0 0 0 0 0 0 0 0 0 0 0 0 0 0 0 0 127 0" result="hardAlpha"/>
<feOffset dy="4"/>
<feGaussianBlur stdDeviation="2"/>
<feComposite in2="hardAlpha" operator="out"/>
<feColorMatrix type="matrix" values="0 0 0 0 0 0 0 0 0 0 0 0 0 0 0 0 0 0 0.25 0"/>
<feBlend mode="normal" in2="BackgroundImageFix" result="effect1_dropShadow_1115_282"/>
<feBlend mode="normal" in="SourceGraphic" in2="effect1_dropShadow_1115_282" result="shape"/>
</filter>
<filter id="filter2_i_1115_282" x="38" y="10" width="57" height="20.8" filterUnits="userSpaceOnUse" color-interpolation-filters="sRGB">
<feFlood flood-opacity="0" result="BackgroundImageFix"/>
<feBlend mode="normal" in="SourceGraphic" in2="BackgroundImageFix" result="shape"/>
<feColorMatrix in="SourceAlpha" type="matrix" values="0 0 0 0 0 0 0 0 0 0 0 0 0 0 0 0 0 0 127 0" result="hardAlpha"/>
<feOffset dy="3"/>
<feGaussianBlur stdDeviation="0.4"/>
<feComposite in2="hardAlpha" operator="arithmetic" k2="-1" k3="1"/>
<feColorMatrix type="matrix" values="0 0 0 0 0 0 0 0 0 0 0 0 0 0 0 0 0 0 0.44 0"/>
<feBlend mode="normal" in2="shape" result="effect1_innerShadow_1115_282"/>
</filter>
<linearGradient id="paint0_linear_1115_282" x1="49.7576" y1="5" x2="49.7576" y2="35" gradientUnits="userSpaceOnUse">
<stop stop-color="#FFFBF3"/>
<stop offset="0.221154" stop-color="#FFE7B3"/>
<stop offset="0.884615" stop-color="#FFF1D2"/>
<stop offset="1" stop-color="#DD792C"/>
</linearGradient>
<linearGradient id="paint1_linear_1115_282" x1="17.8507" y1="27.716" x2="32.7688" y2="12.2536" gradientUnits="userSpaceOnUse">
<stop offset="0.2352" stop-color="#E45F12"/>
<stop offset="0.3764" stop-color="#E56213"/>
<stop offset="0.4919" stop-color="#E66C15"/>
<stop offset="0.5983" stop-color="#EA7E19"/>
<stop offset="0.6993" stop-color="#EE961E"/>
<stop offset="0.7956" stop-color="#F4B425"/>
<stop offset="0.8135" stop-color="#F5BB27"/>
<stop offset="1" stop-color="#FA9911"/>
</linearGradient>
<linearGradient id="paint2_linear_1115_282" x1="10.8388" y1="15.2334" x2="23.1242" y2="37.1046" gradientUnits="userSpaceOnUse">
<stop stop-color="#FAC999"/>
<stop offset="0.1097" stop-color="#F8BF88"/>
<stop offset="1" stop-color="#E87400"/>
</linearGradient>
<linearGradient id="paint3_linear_1115_282" x1="20.0312" y1="23.7307" x2="33.3585" y2="12.4176" gradientUnits="userSpaceOnUse">
<stop stop-color="#DD3D84" stop-opacity="0.52"/>
<stop offset="0.3736" stop-color="#EB8BB5"/>
<stop offset="0.7995" stop-color="#F9DEEA"/>
<stop offset="0.9944" stop-color="white"/>
</linearGradient>
<linearGradient id="paint4_linear_1115_282" x1="33.2668" y1="9.92974" x2="13.903" y2="28.1561" gradientUnits="userSpaceOnUse">
<stop stop-color="#F5EF3C"/>
<stop offset="0.6257" stop-color="#EBBB1F"/>
<stop offset="0.933" stop-color="#EB6E46"/>
</linearGradient>
<linearGradient id="paint5_linear_1115_282" x1="33.4771" y1="13.2456" x2="13.5484" y2="24.4406" gradientUnits="userSpaceOnUse">
<stop stop-color="#F79E10"/>
<stop offset="0.9944" stop-color="#F48A0B"/>
</linearGradient>
<linearGradient id="paint6_linear_1115_282" x1="17.6712" y1="17.22" x2="29.5437" y2="21.3388" gradientUnits="userSpaceOnUse">
<stop stop-color="#F79E10"/>
<stop offset="0.9944" stop-color="#F48A0B"/>
</linearGradient>
<linearGradient id="paint7_linear_1115_282" x1="29.9279" y1="30.0448" x2="10.6614" y2="18.4183" gradientUnits="userSpaceOnUse">
<stop stop-color="#FAEE39"/>
<stop offset="0.6511" stop-color="#FAB12F"/>
<stop offset="1" stop-color="#FA952B"/>
</linearGradient>
<linearGradient id="paint8_linear_1115_282" x1="32.8483" y1="9.82489" x2="19.0742" y2="32.4112" gradientUnits="userSpaceOnUse">
<stop stop-color="#FAC999"/>
<stop offset="0.1097" stop-color="#F8BF88"/>
<stop offset="1" stop-color="#E87400"/>
</linearGradient>
<linearGradient id="paint9_linear_1115_282" x1="27.0214" y1="13.0334" x2="21.6531" y2="18.5841" gradientUnits="userSpaceOnUse">
<stop stop-color="#FA831D" stop-opacity="0.5"/>
<stop offset="0.4504" stop-color="#FCBF8A" stop-opacity="0.5"/>
<stop offset="0.8249" stop-color="#FEEDDE" stop-opacity="0.5"/>
<stop offset="0.9944" stop-color="white" stop-opacity="0.5"/>
</linearGradient>
</defs>
</svg>
