<svg width="132" height="43" viewBox="0 0 132 43" fill="none" xmlns="http://www.w3.org/2000/svg">
<g filter="url(#filter0_i_1032_11)">
<rect width="132" height="40" rx="20" fill="#64544B"/>
</g>
<g filter="url(#filter1_d_1032_11)">
<rect x="6" y="5" width="119.226" height="29.0714" rx="14.5357" fill="url(#paint0_linear_1032_11)"/>
</g>
<g filter="url(#filter2_i_1032_11)">
<path d="M46.8387 18.8393C46.8387 13.3658 51.2759 8.92857 56.7494 8.92857H110.734C116.208 8.92857 120.645 13.3658 120.645 18.8393V18.8393C120.645 24.3128 116.208 28.75 110.734 28.75H56.7494C51.2759 28.75 46.8387 24.3128 46.8387 18.8393V18.8393Z" fill="#59471D"/>
</g>
<path d="M36.36 20.7001H41.4365L23.5063 31.3929L26.5477 24.8759L26.7504 24.4445H22.7097L29.2562 13.1189H44.5575L36.36 20.7001Z" fill="#E4A305"/>
<path d="M40.2338 17.0931H42.6022V19.1849L26.4178 28.8365V26.7447L28.3686 22.5647H25.6987V20.4729L31.6078 10.25H45.4194V12.3419L40.2338 17.0931Z" fill="#008989"/>
<path d="M43.7461 11.7972L38.0201 17.0931L42.6022 17.0931L41.0988 17.9913L26.4178 26.7447L29.1631 20.8623L29.3461 20.4729L25.6987 20.4729L28.8429 15.037L31.6078 10.25H45.4194L43.7461 11.7972Z" fill="#2CE4F3"/>
<path d="M45.4194 10.25L43.7461 11.7972L28.8429 15.037L31.6078 10.25H45.4194Z" fill="#5CFBFF"/>
<path d="M41.0988 17.9913L26.4178 26.7447L29.1631 20.8623L41.0988 17.9913Z" fill="#0ABCC1"/>
<text fill="white" xml:space="preserve" style="white-space: pre" font-family="Racing Sans One" font-size="18" letter-spacing="0em"><tspan x="64" y="24.728">1000</tspan></text>
<defs>
<filter id="filter0_i_1032_11" x="0" y="0" width="132" height="43.3" filterUnits="userSpaceOnUse" color-interpolation-filters="sRGB">
<feFlood flood-opacity="0" result="BackgroundImageFix"/>
<feBlend mode="normal" in="SourceGraphic" in2="BackgroundImageFix" result="shape"/>
<feColorMatrix in="SourceAlpha" type="matrix" values="0 0 0 0 0 0 0 0 0 0 0 0 0 0 0 0 0 0 127 0" result="hardAlpha"/>
<feOffset dy="4"/>
<feGaussianBlur stdDeviation="1.65"/>
<feComposite in2="hardAlpha" operator="arithmetic" k2="-1" k3="1"/>
<feColorMatrix type="matrix" values="0 0 0 0 0 0 0 0 0 0 0 0 0 0 0 0 0 0 0.45 0"/>
<feBlend mode="normal" in2="shape" result="effect1_innerShadow_1032_11"/>
</filter>
<filter id="filter1_d_1032_11" x="2" y="5" width="127.226" height="37.0714" filterUnits="userSpaceOnUse" color-interpolation-filters="sRGB">
<feFlood flood-opacity="0" result="BackgroundImageFix"/>
<feColorMatrix in="SourceAlpha" type="matrix" values="0 0 0 0 0 0 0 0 0 0 0 0 0 0 0 0 0 0 127 0" result="hardAlpha"/>
<feOffset dy="4"/>
<feGaussianBlur stdDeviation="2"/>
<feComposite in2="hardAlpha" operator="out"/>
<feColorMatrix type="matrix" values="0 0 0 0 0 0 0 0 0 0 0 0 0 0 0 0 0 0 0.25 0"/>
<feBlend mode="normal" in2="BackgroundImageFix" result="effect1_dropShadow_1032_11"/>
<feBlend mode="normal" in="SourceGraphic" in2="effect1_dropShadow_1032_11" result="shape"/>
</filter>
<filter id="filter2_i_1032_11" x="46.8387" y="8.92857" width="73.8064" height="20.6214" filterUnits="userSpaceOnUse" color-interpolation-filters="sRGB">
<feFlood flood-opacity="0" result="BackgroundImageFix"/>
<feBlend mode="normal" in="SourceGraphic" in2="BackgroundImageFix" result="shape"/>
<feColorMatrix in="SourceAlpha" type="matrix" values="0 0 0 0 0 0 0 0 0 0 0 0 0 0 0 0 0 0 127 0" result="hardAlpha"/>
<feOffset dy="3"/>
<feGaussianBlur stdDeviation="0.4"/>
<feComposite in2="hardAlpha" operator="arithmetic" k2="-1" k3="1"/>
<feColorMatrix type="matrix" values="0 0 0 0 0 0 0 0 0 0 0 0 0 0 0 0 0 0 0.44 0"/>
<feBlend mode="normal" in2="shape" result="effect1_innerShadow_1032_11"/>
</filter>
<linearGradient id="paint0_linear_1032_11" x1="60.9161" y1="5" x2="60.9161" y2="34.0714" gradientUnits="userSpaceOnUse">
<stop stop-color="#FFFBF3"/>
<stop offset="0.221154" stop-color="#FFE7B3"/>
<stop offset="0.884615" stop-color="#FFE7B3"/>
<stop offset="1" stop-color="#DD792C"/>
</linearGradient>
</defs>
</svg>
