<svg width="183" height="118" viewBox="0 0 183 118" fill="none" xmlns="http://www.w3.org/2000/svg">
<text fill="#D5CFCF" xml:space="preserve" style="white-space: pre" font-family="Timmana" font-size="16" letter-spacing="0em"><tspan x="10" y="14.216">POSITION THIS WEEK</tspan></text>
<g filter="url(#filter0_d_619_12)">
<rect x="5" y="24" width="174" height="22" rx="11" fill="url(#paint0_linear_619_12)"/>
</g>
<g filter="url(#filter1_d_619_12)">
<rect x="4" y="88" width="167" height="22" rx="11" fill="url(#paint1_linear_619_12)"/>
</g>
<g filter="url(#filter2_i_619_12)">
<rect x="122" y="28" width="52" height="15" rx="7.5" fill="#736C5E"/>
</g>
<g filter="url(#filter3_i_619_12)">
<rect x="114" y="92" width="52" height="15" rx="7.5" fill="#736C5E"/>
</g>
<text fill="#FB5519" xml:space="preserve" style="white-space: pre" font-family="Racing Sans One" font-size="17" letter-spacing="0em"><tspan x="14" y="40.382">100 </tspan></text>
<path d="M113.819 35.8852H117.843L103.631 46L106.042 39.8353L106.203 39.4272H103L108.189 28.7139H120.317L113.819 35.8852Z" fill="#E4A305"/>
<path d="M116.89 32.4732H118.767V34.4519L105.939 43.5818V41.6031L107.485 37.649H105.369V35.6703L110.053 26H121V27.9789L116.89 32.4732Z" fill="#008989"/>
<path d="M119.674 27.4636L115.135 32.4732L118.767 32.4732L117.575 33.3228L105.939 41.6031L108.115 36.0387L108.26 35.6703L105.369 35.6703L107.861 30.5283L110.053 26H121L119.674 27.4636Z" fill="#2CE4F3"/>
<path d="M121 26L119.674 27.4636L107.861 30.5283L110.053 26H121Z" fill="#5CFBFF"/>
<path d="M117.575 33.3228L105.939 41.6031L108.115 36.0387L117.575 33.3228Z" fill="#0ABCC1"/>
<text fill="#2D2D2D" xml:space="preserve" style="white-space: pre" font-family="Timmana" font-size="15" letter-spacing="0em"><tspan x="48" y="39.14">Rumbi**</tspan></text>
<text fill="white" xml:space="preserve" style="white-space: pre" font-family="Racing Sans One" font-size="14" letter-spacing="0em"><tspan x="132" y="39.844">1000</tspan></text>
<text fill="#FB5519" xml:space="preserve" style="white-space: pre" font-family="Racing Sans One" font-size="17" letter-spacing="0em"><tspan x="14" y="104.382">98 </tspan></text>
<path d="M103.819 99.8852H107.843L93.6314 110L96.042 103.835L96.2027 103.427H93L98.1888 92.7139H110.317L103.819 99.8852Z" fill="#E4A305"/>
<path d="M106.89 96.4732H108.767V98.4519L95.9391 107.582V105.603L97.4854 101.649H95.3692V99.6703L100.053 90H111V91.9789L106.89 96.4732Z" fill="#008989"/>
<path d="M109.674 91.4636L105.135 96.4732L108.767 96.4732L107.575 97.3228L95.9391 105.603L98.1151 100.039L98.2601 99.6703L95.3692 99.6703L97.8613 94.5283L100.053 90H111L109.674 91.4636Z" fill="#2CE4F3"/>
<path d="M111 90L109.674 91.4636L97.8613 94.5283L100.053 90H111Z" fill="#5CFBFF"/>
<path d="M107.575 97.3228L95.9391 105.603L98.1151 100.039L107.575 97.3228Z" fill="#0ABCC1"/>
<text fill="#2D2D2D" xml:space="preserve" style="white-space: pre" font-family="Timmana" font-size="15" letter-spacing="0em"><tspan x="42" y="103.14">Halim**</tspan></text>
<text fill="white" xml:space="preserve" style="white-space: pre" font-family="Racing Sans One" font-size="14" letter-spacing="0em"><tspan x="123" y="103.844">1000</tspan></text>
<g filter="url(#filter4_d_619_12)">
<rect x="4" y="56" width="144" height="22" rx="11" fill="url(#paint2_linear_619_12)"/>
</g>
<g filter="url(#filter5_i_619_12)">
<path d="M91 67.5C91 63.3579 94.3579 60 98.5 60H135.5C139.642 60 143 63.3579 143 67.5C143 71.6421 139.642 75 135.5 75H98.5C94.3579 75 91 71.6421 91 67.5Z" fill="#59471D"/>
</g>
<text fill="#FB5519" xml:space="preserve" style="white-space: pre" font-family="Racing Sans One" font-size="17" letter-spacing="0em"><tspan x="14" y="72.6181">99</tspan></text>
<path d="M81.8194 68.8852H85.8431L71.6314 79L74.042 72.8353L74.2027 72.4272H71L76.1888 61.7139H88.3169L81.8194 68.8852Z" fill="#E4A305"/>
<path d="M84.8898 65.4732H86.7671V67.4519L73.9391 76.5818V74.6031L75.4854 70.649H73.3692V68.6703L78.0528 59H89V60.9789L84.8898 65.4732Z" fill="#008989"/>
<path d="M87.6737 60.4636L83.1353 65.4732L86.7671 65.4732L85.5755 66.3228L73.9391 74.6031L76.1151 69.0387L76.2601 68.6703L73.3692 68.6703L75.8613 63.5283L78.0528 59H89L87.6737 60.4636Z" fill="#2CE4F3"/>
<path d="M89 59L87.6737 60.4636L75.8613 63.5283L78.0528 59H89Z" fill="#5CFBFF"/>
<path d="M85.5755 66.3228L73.9391 74.6031L76.1151 69.0387L85.5755 66.3228Z" fill="#0ABCC1"/>
<text fill="#2D2D2D" xml:space="preserve" style="white-space: pre" font-family="Timmana" font-size="15" letter-spacing="0em"><tspan x="44" y="71.14">You</tspan></text>
<text fill="white" xml:space="preserve" style="white-space: pre" font-family="Racing Sans One" font-size="14" letter-spacing="0em"><tspan x="101" y="71.844">1000</tspan></text>
<defs>
<filter id="filter0_d_619_12" x="1" y="24" width="182" height="30" filterUnits="userSpaceOnUse" color-interpolation-filters="sRGB">
<feFlood flood-opacity="0" result="BackgroundImageFix"/>
<feColorMatrix in="SourceAlpha" type="matrix" values="0 0 0 0 0 0 0 0 0 0 0 0 0 0 0 0 0 0 127 0" result="hardAlpha"/>
<feOffset dy="4"/>
<feGaussianBlur stdDeviation="2"/>
<feComposite in2="hardAlpha" operator="out"/>
<feColorMatrix type="matrix" values="0 0 0 0 0 0 0 0 0 0 0 0 0 0 0 0 0 0 0.25 0"/>
<feBlend mode="normal" in2="BackgroundImageFix" result="effect1_dropShadow_619_12"/>
<feBlend mode="normal" in="SourceGraphic" in2="effect1_dropShadow_619_12" result="shape"/>
</filter>
<filter id="filter1_d_619_12" x="0" y="88" width="175" height="30" filterUnits="userSpaceOnUse" color-interpolation-filters="sRGB">
<feFlood flood-opacity="0" result="BackgroundImageFix"/>
<feColorMatrix in="SourceAlpha" type="matrix" values="0 0 0 0 0 0 0 0 0 0 0 0 0 0 0 0 0 0 127 0" result="hardAlpha"/>
<feOffset dy="4"/>
<feGaussianBlur stdDeviation="2"/>
<feComposite in2="hardAlpha" operator="out"/>
<feColorMatrix type="matrix" values="0 0 0 0 0 0 0 0 0 0 0 0 0 0 0 0 0 0 0.25 0"/>
<feBlend mode="normal" in2="BackgroundImageFix" result="effect1_dropShadow_619_12"/>
<feBlend mode="normal" in="SourceGraphic" in2="effect1_dropShadow_619_12" result="shape"/>
</filter>
<filter id="filter2_i_619_12" x="121" y="28" width="53" height="16.1" filterUnits="userSpaceOnUse" color-interpolation-filters="sRGB">
<feFlood flood-opacity="0" result="BackgroundImageFix"/>
<feBlend mode="normal" in="SourceGraphic" in2="BackgroundImageFix" result="shape"/>
<feColorMatrix in="SourceAlpha" type="matrix" values="0 0 0 0 0 0 0 0 0 0 0 0 0 0 0 0 0 0 127 0" result="hardAlpha"/>
<feOffset dx="-1" dy="2"/>
<feGaussianBlur stdDeviation="0.55"/>
<feComposite in2="hardAlpha" operator="arithmetic" k2="-1" k3="1"/>
<feColorMatrix type="matrix" values="0 0 0 0 0 0 0 0 0 0 0 0 0 0 0 0 0 0 0.53 0"/>
<feBlend mode="normal" in2="shape" result="effect1_innerShadow_619_12"/>
</filter>
<filter id="filter3_i_619_12" x="113" y="92" width="53" height="16.1" filterUnits="userSpaceOnUse" color-interpolation-filters="sRGB">
<feFlood flood-opacity="0" result="BackgroundImageFix"/>
<feBlend mode="normal" in="SourceGraphic" in2="BackgroundImageFix" result="shape"/>
<feColorMatrix in="SourceAlpha" type="matrix" values="0 0 0 0 0 0 0 0 0 0 0 0 0 0 0 0 0 0 127 0" result="hardAlpha"/>
<feOffset dx="-1" dy="2"/>
<feGaussianBlur stdDeviation="0.55"/>
<feComposite in2="hardAlpha" operator="arithmetic" k2="-1" k3="1"/>
<feColorMatrix type="matrix" values="0 0 0 0 0 0 0 0 0 0 0 0 0 0 0 0 0 0 0.53 0"/>
<feBlend mode="normal" in2="shape" result="effect1_innerShadow_619_12"/>
</filter>
<filter id="filter4_d_619_12" x="0" y="56" width="152" height="30" filterUnits="userSpaceOnUse" color-interpolation-filters="sRGB">
<feFlood flood-opacity="0" result="BackgroundImageFix"/>
<feColorMatrix in="SourceAlpha" type="matrix" values="0 0 0 0 0 0 0 0 0 0 0 0 0 0 0 0 0 0 127 0" result="hardAlpha"/>
<feOffset dy="4"/>
<feGaussianBlur stdDeviation="2"/>
<feComposite in2="hardAlpha" operator="out"/>
<feColorMatrix type="matrix" values="0 0 0 0 0 0 0 0 0 0 0 0 0 0 0 0 0 0 0.25 0"/>
<feBlend mode="normal" in2="BackgroundImageFix" result="effect1_dropShadow_619_12"/>
<feBlend mode="normal" in="SourceGraphic" in2="effect1_dropShadow_619_12" result="shape"/>
</filter>
<filter id="filter5_i_619_12" x="91" y="60" width="52" height="16.6" filterUnits="userSpaceOnUse" color-interpolation-filters="sRGB">
<feFlood flood-opacity="0" result="BackgroundImageFix"/>
<feBlend mode="normal" in="SourceGraphic" in2="BackgroundImageFix" result="shape"/>
<feColorMatrix in="SourceAlpha" type="matrix" values="0 0 0 0 0 0 0 0 0 0 0 0 0 0 0 0 0 0 127 0" result="hardAlpha"/>
<feOffset dy="3"/>
<feGaussianBlur stdDeviation="0.8"/>
<feComposite in2="hardAlpha" operator="arithmetic" k2="-1" k3="1"/>
<feColorMatrix type="matrix" values="0 0 0 0 0 0 0 0 0 0 0 0 0 0 0 0 0 0 0.44 0"/>
<feBlend mode="normal" in2="shape" result="effect1_innerShadow_619_12"/>
</filter>
<linearGradient id="paint0_linear_619_12" x1="85.1455" y1="24" x2="85.1455" y2="46" gradientUnits="userSpaceOnUse">
<stop stop-color="#FFFEEC"/>
<stop offset="0.221154" stop-color="#F8F5D4"/>
<stop offset="0.730769" stop-color="#F8F5D4"/>
<stop offset="1" stop-color="#E5D294"/>
</linearGradient>
<linearGradient id="paint1_linear_619_12" x1="80.9212" y1="88" x2="80.9212" y2="110" gradientUnits="userSpaceOnUse">
<stop stop-color="#FFFEEC"/>
<stop offset="0.221154" stop-color="#F8F5D4"/>
<stop offset="0.730769" stop-color="#F8F5D4"/>
<stop offset="1" stop-color="#E5D294"/>
</linearGradient>
<linearGradient id="paint2_linear_619_12" x1="70.3273" y1="56" x2="70.3273" y2="78" gradientUnits="userSpaceOnUse">
<stop stop-color="#FFEDCA"/>
<stop offset="0.221154" stop-color="#FFE7B3"/>
<stop offset="0.730769" stop-color="#FFE7B3"/>
<stop offset="1" stop-color="#DD792C"/>
</linearGradient>
</defs>
</svg>
